<svg width="1600" height="61" viewBox="0 0 1600 61" fill="none" xmlns="http://www.w3.org/2000/svg">
<rect width="1600" height="61" fill="#EDF6FD"/>
<g clip-path="url(#clip0_2_599)">
<path d="M111.922 28.3996H108.188V13.6567H111.922V28.3996Z" fill="#000A22"/>
<path d="M137.267 28.3996H133.534V18.2768L127.504 28.3996H124.808L118.778 18.2768V28.3996H115.056V13.6567H120.082L126.156 24.0509L132.23 13.6567H137.267V28.3996Z" fill="#000A22"/>
<path d="M162.853 28.3996H159.123V18.2768L153.089 28.3996H150.393L144.363 18.2768V28.3996H140.634V13.6567H145.671L151.749 24.0509L157.815 13.6567H162.853V28.3996Z" fill="#000A22"/>
<path d="M169.924 28.3996H166.195V13.6567H169.924V28.3996Z" fill="#000A22"/>
<path d="M181.709 20.4959H190.91V28.3998H188.155L187.987 26.0837C186.619 27.6021 184.445 28.6103 181.354 28.6103C176.006 28.6103 172.732 25.9177 172.732 21.0344C172.732 16.1512 176.006 13.4585 181.977 13.4585C187.78 13.4585 190.683 15.7503 190.91 19.4148H187.118C186.91 18.2972 185.921 16.6371 181.977 16.6371C177.127 16.6249 176.477 19.3378 176.477 21.1114C176.477 22.8849 177.159 25.6788 181.989 25.6788C185.578 25.6788 187.046 24.0591 187.129 22.9618H181.709V20.4959Z" fill="#000A22"/>
<path d="M208.136 24.0104L210.812 28.3996H206.425L204.084 24.4639H198.065V28.3996H194.332V13.6567H205.735C209.029 13.6567 211.287 15.7825 211.287 19.0664C211.287 21.4635 210.086 23.2329 208.136 24.0104ZM198.113 21.2732H204.746C205.863 21.2732 207.606 21.2732 207.606 19.0664C207.606 16.8596 205.863 16.8353 204.746 16.8353H198.113V21.2732Z" fill="#000A22"/>
<path d="M226.072 25.2534H217.385L215.83 28.3996H211.726L219.208 13.6567H224.245L231.751 28.3996H227.623L226.072 25.2534ZM224.68 22.4191L221.736 16.4547L218.773 22.4312L224.68 22.4191Z" fill="#000A22"/>
<path d="M251.693 13.6567V28.3996H246.611L236.724 17.3374V28.3996H232.995V13.6567H238.052L247.959 24.7271V13.6567H251.693Z" fill="#000A22"/>
<path d="M271 16.8353H263.953V28.3996H260.232V16.8353H253.172V13.6567H271V16.8353Z" fill="#000A22"/>
<path d="M111.922 49.2366H108.188V34.5059H111.922V49.2366Z" fill="#000A22"/>
<path d="M133.742 34.5059V49.2366H128.665L118.778 38.1865V49.2366H115.056V34.5059H120.114L130.013 45.5762V34.5059H133.742Z" fill="#000A22"/>
<path d="M154.365 34.5059L146.903 49.2366H141.802L134.34 34.5059H138.528L144.351 46.4386L150.178 34.5059H154.365Z" fill="#000A22"/>
<path d="M159.187 37.5144V40.5026H170.793V43.2398H159.187V46.2159H170.793V49.2244H155.454V34.5059H170.793V37.5144H159.187Z" fill="#000A22"/>
<path d="M177.203 44.1669C177.203 45.7218 178.447 46.4385 183.185 46.4385C187.106 46.4385 188.286 45.9971 188.286 44.8188C188.286 43.6041 187.457 43.3855 182.75 43.1547C176.429 42.8631 173.92 41.8508 173.92 38.5467C173.92 35.3074 177.175 34.2749 182.607 34.2749C188.039 34.2749 191.381 35.6638 191.381 39.3039H187.644C187.644 37.6843 186.049 37.2794 182.172 37.2794C178.503 37.2794 177.633 37.6397 177.633 38.733C177.633 39.8263 178.503 40.0773 182.73 40.3526C188.454 40.6685 191.995 40.9843 191.995 44.7095C191.995 48.6453 188.326 49.443 182.958 49.443C177.011 49.443 173.466 48.4104 173.466 44.1791L177.203 44.1669Z" fill="#000A22"/>
<path d="M210.102 37.6844H203.055V49.2366H199.322V37.6844H192.274V34.5059H210.102V37.6844Z" fill="#000A22"/>
<path d="M81.4388 31.2097L71.0532 20.686L66 25.8203L71.3085 31.2097L66 36.5951L71.0532 41.7294L81.4388 31.2097Z" fill="#001A70"/>
<path d="M73.6456 18.0582L86.5997 31.2097L73.6456 44.3573L79.4127 50.2123L98.1539 31.2097L79.4127 12.2031L73.6456 18.0582Z" fill="#001A70"/>
</g>
<line x1="26.5" y1="23" x2="47.5" y2="23" stroke="#000A22"/>
<line x1="26.5" y1="31.25" x2="47.5" y2="31.25" stroke="#000A22"/>
<line x1="26.5" y1="39.5" x2="47.5" y2="39.5" stroke="#000A22"/>
<path fill-rule="evenodd" clip-rule="evenodd" d="M1487.27 39.9633C1485.48 39.9633 1483.79 39.5049 1482.33 38.7005L1476.67 40.4998L1478.51 35.0549C1477.58 33.5255 1477.05 31.732 1477.05 29.8149C1477.05 24.21 1481.62 19.6665 1487.27 19.6665C1492.92 19.6665 1497.5 24.21 1497.5 29.8149C1497.5 35.4197 1492.92 39.9633 1487.27 39.9633ZM1487.27 21.2827C1482.53 21.2827 1478.67 25.1103 1478.67 29.8149C1478.67 31.6818 1479.28 33.4107 1480.31 34.8174L1479.24 37.9859L1482.54 36.9357C1483.9 37.8272 1485.53 38.3471 1487.27 38.3471C1492.01 38.3471 1495.87 34.5197 1495.87 29.8151C1495.87 25.1105 1492.01 21.2827 1487.27 21.2827ZM1492.44 32.1522C1492.37 32.0487 1492.21 31.9862 1491.96 31.8619C1491.71 31.7376 1490.47 31.1355 1490.24 31.0528C1490.01 30.97 1489.85 30.9281 1489.68 31.1772C1489.51 31.4262 1489.03 31.9862 1488.89 32.1522C1488.74 32.3184 1488.59 32.3392 1488.34 32.2147C1488.09 32.0903 1487.28 31.8276 1486.33 30.9802C1485.58 30.3209 1485.08 29.507 1484.93 29.2577C1484.79 29.0089 1484.92 28.8744 1485.04 28.7505C1485.15 28.639 1485.29 28.46 1485.42 28.3149C1485.54 28.1695 1485.58 28.066 1485.67 27.8998C1485.75 27.7339 1485.71 27.5887 1485.65 27.464C1485.58 27.3397 1485.08 26.1156 1484.87 25.6174C1484.67 25.1197 1484.46 25.2026 1484.31 25.2026C1484.16 25.2026 1484 25.1818 1483.83 25.1818C1483.66 25.1818 1483.39 25.244 1483.16 25.4929C1482.93 25.742 1482.28 26.3438 1482.28 27.5677C1482.28 28.7917 1483.18 29.9744 1483.31 30.1401C1483.43 30.3059 1485.04 32.8994 1487.59 33.8954C1490.14 34.8913 1490.14 34.5591 1490.6 34.5177C1491.06 34.4762 1492.08 33.916 1492.29 33.3353C1492.5 32.754 1492.5 32.2559 1492.44 32.1522Z" fill="#000A22"/>
<path d="M372.816 35H371.472V23.8H378.832V25.08H372.816V35ZM379.789 28.6C380.653 27.6187 381.688 27.128 382.893 27.128C383.992 27.128 384.904 27.512 385.629 28.28C386.365 29.048 386.733 30.008 386.733 31.16C386.733 32.312 386.365 33.272 385.629 34.04C384.904 34.808 383.992 35.192 382.893 35.192C381.677 35.192 380.685 34.744 379.917 33.848V38.52H378.637V27.32H379.789V28.6ZM384.669 33.224C385.192 32.7013 385.453 32.0133 385.453 31.16C385.453 30.3067 385.192 29.6187 384.669 29.096C384.157 28.5733 383.517 28.312 382.749 28.312C382.098 28.312 381.522 28.4933 381.021 28.856C380.52 29.2187 380.152 29.6667 379.917 30.2V32.12C380.152 32.6533 380.52 33.1013 381.021 33.464C381.522 33.8267 382.098 34.008 382.749 34.008C383.517 34.008 384.157 33.7467 384.669 33.224ZM394.815 33.4C394.815 33.7947 395.012 33.992 395.407 33.992C395.577 33.992 395.775 33.9547 395.999 33.88V34.92C395.679 35.0373 395.359 35.096 395.039 35.096C394.303 35.096 393.833 34.7867 393.631 34.168C392.809 34.8507 391.812 35.192 390.639 35.192C389.892 35.192 389.252 34.9947 388.719 34.6C388.196 34.1947 387.935 33.6133 387.935 32.856C387.935 31.9493 388.271 31.2933 388.943 30.888C389.625 30.472 390.447 30.264 391.407 30.264C392.111 30.264 392.82 30.344 393.535 30.504V30.232C393.535 29.6453 393.343 29.1813 392.959 28.84C392.575 28.488 392.036 28.312 391.343 28.312C390.372 28.312 389.439 28.504 388.543 28.888V27.64C389.545 27.2987 390.521 27.128 391.471 27.128C392.516 27.128 393.332 27.4107 393.919 27.976C394.516 28.5307 394.815 29.336 394.815 30.392V33.4ZM389.247 32.792C389.247 33.2187 389.407 33.544 389.727 33.768C390.057 33.9813 390.452 34.088 390.911 34.088C391.967 34.088 392.841 33.7147 393.535 32.968V31.56C392.809 31.4107 392.159 31.336 391.583 31.336C390.932 31.336 390.377 31.4533 389.919 31.688C389.471 31.912 389.247 32.28 389.247 32.792ZM408.139 35H406.699L404.091 31.784H402.859V35H401.579V31.784H400.347L397.739 35H396.299L399.355 31.144L396.651 27.32H398.075L400.411 30.6H401.579V27.32H402.859V30.6H404.027L406.363 27.32H407.787L405.083 31.144L408.139 35ZM409.914 37.08H408.666V33.848H409.69C410.597 32.248 411.034 30.072 411.002 27.32H416.73V33.848H417.85V37.08H416.602V35H409.914V37.08ZM412.234 28.472C412.181 30.5733 411.797 32.3653 411.082 33.848H415.45V28.472H412.234ZM425.799 33.4C425.799 33.7947 425.996 33.992 426.391 33.992C426.562 33.992 426.759 33.9547 426.983 33.88V34.92C426.663 35.0373 426.343 35.096 426.023 35.096C425.287 35.096 424.818 34.7867 424.615 34.168C423.794 34.8507 422.796 35.192 421.623 35.192C420.876 35.192 420.236 34.9947 419.703 34.6C419.18 34.1947 418.919 33.6133 418.919 32.856C418.919 31.9493 419.255 31.2933 419.927 30.888C420.61 30.472 421.431 30.264 422.391 30.264C423.095 30.264 423.804 30.344 424.519 30.504V30.232C424.519 29.6453 424.327 29.1813 423.943 28.84C423.559 28.488 423.02 28.312 422.327 28.312C421.356 28.312 420.423 28.504 419.527 28.888V27.64C420.53 27.2987 421.506 27.128 422.455 27.128C423.5 27.128 424.316 27.4107 424.903 27.976C425.5 28.5307 425.799 29.336 425.799 30.392V33.4ZM420.231 32.792C420.231 33.2187 420.391 33.544 420.711 33.768C421.042 33.9813 421.436 34.088 421.895 34.088C422.951 34.088 423.826 33.7147 424.519 32.968V31.56C423.794 31.4107 423.143 31.336 422.567 31.336C421.916 31.336 421.362 31.4533 420.903 31.688C420.455 31.912 420.231 32.28 420.231 32.792ZM429.636 35H428.356V27.32H429.636V30.568H434.084V27.32H435.364V35H434.084V31.752H429.636V35ZM437.203 31.192C437.203 30.52 437.325 29.9173 437.571 29.384C437.816 28.8507 438.136 28.424 438.531 28.104C438.936 27.784 439.379 27.544 439.859 27.384C440.349 27.2133 440.851 27.128 441.363 27.128C442.312 27.128 443.101 27.336 443.731 27.752V29C443.144 28.5413 442.408 28.312 441.523 28.312C440.691 28.312 439.976 28.552 439.379 29.032C438.781 29.512 438.483 30.2213 438.483 31.16C438.483 32.088 438.776 32.7973 439.363 33.288C439.96 33.768 440.669 34.008 441.491 34.008C442.344 34.008 443.117 33.8 443.811 33.384V34.664C443.085 35.016 442.253 35.192 441.315 35.192C440.205 35.192 439.24 34.8453 438.419 34.152C437.608 33.4587 437.203 32.472 437.203 31.192ZM448.884 35H447.604V28.504H444.772V27.32H451.7V28.504H448.884V35ZM457.489 35H453.153V27.32H457.361C458.054 27.32 458.619 27.5013 459.057 27.864C459.505 28.2267 459.729 28.7387 459.729 29.4C459.729 29.784 459.633 30.1307 459.441 30.44C459.249 30.7493 459.003 30.968 458.705 31.096C459.057 31.2133 459.355 31.4267 459.601 31.736C459.846 32.0453 459.969 32.424 459.969 32.872C459.969 33.5227 459.755 34.04 459.329 34.424C458.913 34.808 458.299 35 457.489 35ZM454.433 31.672V33.88H457.313C458.23 33.88 458.689 33.5173 458.689 32.792C458.689 32.0453 458.246 31.672 457.361 31.672H454.433ZM454.433 28.44V30.568H457.233C458.033 30.568 458.433 30.2213 458.433 29.528C458.433 29.1333 458.315 28.856 458.081 28.696C457.846 28.5253 457.563 28.44 457.233 28.44H454.433ZM462.606 34.12C461.796 33.3947 461.39 32.408 461.39 31.16C461.39 29.912 461.796 28.9307 462.606 28.216C463.417 27.4907 464.377 27.128 465.486 27.128C466.606 27.128 467.566 27.4907 468.366 28.216C469.177 28.9307 469.582 29.912 469.582 31.16C469.582 32.408 469.177 33.3947 468.366 34.12C467.566 34.8347 466.606 35.192 465.486 35.192C464.377 35.192 463.417 34.8347 462.606 34.12ZM467.502 33.224C468.036 32.712 468.302 32.024 468.302 31.16C468.302 30.296 468.036 29.6133 467.502 29.112C466.969 28.6 466.297 28.344 465.486 28.344C464.676 28.344 464.004 28.6 463.47 29.112C462.937 29.6133 462.67 30.296 462.67 31.16C462.67 32.024 462.937 32.712 463.47 33.224C464.004 33.7253 464.676 33.976 465.486 33.976C466.297 33.976 466.969 33.7253 467.502 33.224ZM476.491 35H475.403V27.32H476.683V32.936L481.387 27.32H482.475V35H481.195V29.384L476.491 35ZM489.113 23.8H493.705C494.878 23.8 495.806 24.0453 496.489 24.536C497.171 25.016 497.513 25.7147 497.513 26.632C497.513 27.2933 497.337 27.8373 496.985 28.264C496.633 28.68 496.211 28.9627 495.721 29.112C496.318 29.272 496.841 29.5813 497.289 30.04C497.737 30.488 497.961 31.1173 497.961 31.928C497.961 32.4187 497.865 32.8507 497.673 33.224C497.491 33.5973 497.257 33.896 496.969 34.12C496.691 34.3333 496.361 34.5093 495.977 34.648C495.603 34.7867 495.241 34.8827 494.889 34.936C494.547 34.9787 494.195 35 493.833 35H489.113V23.8ZM496.601 31.784C496.601 30.4933 495.71 29.848 493.929 29.848H490.457V33.72H493.561C493.902 33.72 494.19 33.7147 494.425 33.704C494.659 33.6827 494.926 33.64 495.225 33.576C495.523 33.5013 495.763 33.4 495.945 33.272C496.126 33.1333 496.281 32.9413 496.409 32.696C496.537 32.44 496.601 32.136 496.601 31.784ZM496.153 26.824C496.153 26.1947 495.934 25.7467 495.497 25.48C495.07 25.2133 494.435 25.08 493.593 25.08H490.457V28.568H493.961C494.601 28.568 495.123 28.4293 495.529 28.152C495.945 27.864 496.153 27.4213 496.153 26.824ZM508.175 23.8H509.519V35H508.175V30.024H501.535V35H500.191V23.8H501.535V28.744H508.175V23.8ZM512.632 35H511.096L514.728 29.256L511.432 23.8H512.968L515.8 28.648H517.832V23.8H519.176V28.648H521.192L524.024 23.8H525.56L522.264 29.256L525.896 35H524.36L521.176 29.928H519.176V35H517.832V29.928H515.816L512.632 35Z" fill="#000A22"/>
<path d="M559.72 29.48C559.72 28.2427 560.013 27.1707 560.6 26.264C561.187 25.3467 561.917 24.6747 562.792 24.248C563.667 23.8213 564.605 23.608 565.608 23.608C566.76 23.608 567.811 23.8587 568.76 24.36V25.704C567.949 25.16 566.973 24.888 565.832 24.888C564.552 24.888 563.443 25.2827 562.504 26.072C561.565 26.8507 561.091 27.9867 561.08 29.48C561.08 30.4293 561.32 31.2507 561.8 31.944C562.291 32.6373 562.888 33.1387 563.592 33.448C564.307 33.7573 565.069 33.912 565.88 33.912C567.085 33.912 568.072 33.64 568.84 33.096V34.44C567.869 34.9413 566.787 35.192 565.592 35.192C564.877 35.192 564.173 35.0693 563.48 34.824C562.787 34.568 562.157 34.2107 561.592 33.752C561.027 33.2827 560.573 32.68 560.232 31.944C559.891 31.1973 559.72 30.376 559.72 29.48ZM571.758 28.6C572.622 27.6187 573.656 27.128 574.862 27.128C575.96 27.128 576.872 27.512 577.598 28.28C578.334 29.048 578.702 30.008 578.702 31.16C578.702 32.312 578.334 33.272 577.598 34.04C576.872 34.808 575.96 35.192 574.862 35.192C573.646 35.192 572.654 34.744 571.886 33.848V38.52H570.606V27.32H571.758V28.6ZM576.638 33.224C577.16 32.7013 577.422 32.0133 577.422 31.16C577.422 30.3067 577.16 29.6187 576.638 29.096C576.126 28.5733 575.486 28.312 574.718 28.312C574.067 28.312 573.491 28.4933 572.99 28.856C572.488 29.2187 572.12 29.6667 571.886 30.2V32.12C572.12 32.6533 572.488 33.1013 572.99 33.464C573.491 33.8267 574.067 34.008 574.718 34.008C575.486 34.008 576.126 33.7467 576.638 33.224ZM586.783 33.4C586.783 33.7947 586.981 33.992 587.375 33.992C587.546 33.992 587.743 33.9547 587.967 33.88V34.92C587.647 35.0373 587.327 35.096 587.007 35.096C586.271 35.096 585.802 34.7867 585.599 34.168C584.778 34.8507 583.781 35.192 582.607 35.192C581.861 35.192 581.221 34.9947 580.687 34.6C580.165 34.1947 579.903 33.6133 579.903 32.856C579.903 31.9493 580.239 31.2933 580.911 30.888C581.594 30.472 582.415 30.264 583.375 30.264C584.079 30.264 584.789 30.344 585.503 30.504V30.232C585.503 29.6453 585.311 29.1813 584.927 28.84C584.543 28.488 584.005 28.312 583.311 28.312C582.341 28.312 581.407 28.504 580.511 28.888V27.64C581.514 27.2987 582.49 27.128 583.439 27.128C584.485 27.128 585.301 27.4107 585.887 27.976C586.485 28.5307 586.783 29.336 586.783 30.392V33.4ZM581.215 32.792C581.215 33.2187 581.375 33.544 581.695 33.768C582.026 33.9813 582.421 34.088 582.879 34.088C583.935 34.088 584.81 33.7147 585.503 32.968V31.56C584.778 31.4107 584.127 31.336 583.551 31.336C582.901 31.336 582.346 31.4533 581.887 31.688C581.439 31.912 581.215 32.28 581.215 32.792ZM593.676 35H589.34V27.32H593.548C594.242 27.32 594.807 27.5013 595.244 27.864C595.692 28.2267 595.916 28.7387 595.916 29.4C595.916 29.784 595.82 30.1307 595.628 30.44C595.436 30.7493 595.191 30.968 594.892 31.096C595.244 31.2133 595.543 31.4267 595.788 31.736C596.034 32.0453 596.156 32.424 596.156 32.872C596.156 33.5227 595.943 34.04 595.516 34.424C595.1 34.808 594.487 35 593.676 35ZM590.62 31.672V33.88H593.5C594.418 33.88 594.876 33.5173 594.876 32.792C594.876 32.0453 594.434 31.672 593.548 31.672H590.62ZM590.62 28.44V30.568H593.42C594.22 30.568 594.62 30.2213 594.62 29.528C594.62 29.1333 594.503 28.856 594.268 28.696C594.034 28.5253 593.751 28.44 593.42 28.44H590.62ZM599.386 35H598.106V27.32H599.386V30.568H603.834V27.32H605.114V35H603.834V31.752H599.386V35ZM606.953 31.16C606.953 29.9013 607.337 28.9147 608.105 28.2C608.883 27.4853 609.774 27.128 610.777 27.128C611.715 27.128 612.489 27.3627 613.097 27.832C613.715 28.3013 614.121 28.8827 614.313 29.576C614.505 30.2587 614.515 30.9733 614.345 31.72H608.233C608.307 32.4773 608.643 33.048 609.241 33.432C609.838 33.816 610.558 34.008 611.401 34.008C612.339 34.008 613.182 33.8 613.929 33.384V34.632C613.214 35.0053 612.307 35.192 611.209 35.192C609.993 35.192 608.979 34.8453 608.169 34.152C607.358 33.4587 606.953 32.4613 606.953 31.16ZM613.209 30.6C613.241 30.376 613.225 30.1413 613.161 29.896C613.097 29.6507 612.979 29.4053 612.809 29.16C612.649 28.9147 612.398 28.712 612.057 28.552C611.715 28.392 611.315 28.312 610.857 28.312C610.163 28.312 609.561 28.5147 609.049 28.92C608.547 29.3253 608.275 29.8853 608.233 30.6H613.209ZM617.495 35H616.215V27.32H617.495V30.568H621.943V27.32H623.223V35H621.943V31.752H617.495V35ZM626.678 35H625.59V27.32H626.87V32.936L631.574 27.32H632.662V35H631.382V29.384L626.678 35ZM634.5 31.16C634.5 29.9013 634.884 28.9147 635.652 28.2C636.43 27.4853 637.321 27.128 638.324 27.128C639.262 27.128 640.036 27.3627 640.644 27.832C641.262 28.3013 641.668 28.8827 641.86 29.576C642.052 30.2587 642.062 30.9733 641.892 31.72H635.78C635.854 32.4773 636.19 33.048 636.788 33.432C637.385 33.816 638.105 34.008 638.948 34.008C639.886 34.008 640.729 33.8 641.476 33.384V34.632C640.761 35.0053 639.854 35.192 638.756 35.192C637.54 35.192 636.526 34.8453 635.716 34.152C634.905 33.4587 634.5 32.4613 634.5 31.16ZM640.756 30.6C640.788 30.376 640.772 30.1413 640.708 29.896C640.644 29.6507 640.526 29.4053 640.356 29.16C640.196 28.9147 639.945 28.712 639.604 28.552C639.262 28.392 638.862 28.312 638.404 28.312C637.71 28.312 637.108 28.5147 636.596 28.92C636.094 29.3253 635.822 29.8853 635.78 30.6H640.756Z" fill="#000A22"/>
<path d="M858.816 35H857.472V23.8H858.816V28.648H861.36L864.736 23.8H866.272L862.464 29.256L866.608 35H865.072L861.408 29.928H858.816V35ZM867.981 34.12C867.171 33.3947 866.765 32.408 866.765 31.16C866.765 29.912 867.171 28.9307 867.981 28.216C868.792 27.4907 869.752 27.128 870.861 27.128C871.981 27.128 872.941 27.4907 873.741 28.216C874.552 28.9307 874.957 29.912 874.957 31.16C874.957 32.408 874.552 33.3947 873.741 34.12C872.941 34.8347 871.981 35.192 870.861 35.192C869.752 35.192 868.792 34.8347 867.981 34.12ZM872.877 33.224C873.411 32.712 873.677 32.024 873.677 31.16C873.677 30.296 873.411 29.6133 872.877 29.112C872.344 28.6 871.672 28.344 870.861 28.344C870.051 28.344 869.379 28.6 868.845 29.112C868.312 29.6133 868.045 30.296 868.045 31.16C868.045 32.024 868.312 32.712 868.845 33.224C869.379 33.7253 870.051 33.976 870.861 33.976C871.672 33.976 872.344 33.7253 872.877 33.224ZM878.009 35H876.793V27.32H878.185L880.985 31.576L883.785 27.32H885.177V35H883.961V29.208L881.465 33H880.505L878.009 29.208V35ZM888.823 35H887.543V27.32H894.551V35H893.271V28.504H888.823V35ZM903.158 33.4C903.158 33.7947 903.356 33.992 903.75 33.992C903.921 33.992 904.118 33.9547 904.342 33.88V34.92C904.022 35.0373 903.702 35.096 903.382 35.096C902.646 35.096 902.177 34.7867 901.974 34.168C901.153 34.8507 900.156 35.192 898.982 35.192C898.236 35.192 897.596 34.9947 897.062 34.6C896.54 34.1947 896.278 33.6133 896.278 32.856C896.278 31.9493 896.614 31.2933 897.286 30.888C897.969 30.472 898.79 30.264 899.75 30.264C900.454 30.264 901.164 30.344 901.878 30.504V30.232C901.878 29.6453 901.686 29.1813 901.302 28.84C900.918 28.488 900.38 28.312 899.686 28.312C898.716 28.312 897.782 28.504 896.886 28.888V27.64C897.889 27.2987 898.865 27.128 899.814 27.128C900.86 27.128 901.676 27.4107 902.262 27.976C902.86 28.5307 903.158 29.336 903.158 30.392V33.4ZM897.59 32.792C897.59 33.2187 897.75 33.544 898.07 33.768C898.401 33.9813 898.796 34.088 899.254 34.088C900.31 34.088 901.185 33.7147 901.878 32.968V31.56C901.153 31.4107 900.502 31.336 899.926 31.336C899.276 31.336 898.721 31.4533 898.262 31.688C897.814 31.912 897.59 32.28 897.59 32.792ZM906.995 35H905.715V27.32H906.995V30.568H911.443V27.32H912.723V35H911.443V31.752H906.995V35ZM916.178 35H915.09V27.32H916.37V32.936L921.074 27.32H922.162V35H920.882V29.384L916.178 35ZM925.296 35H923.792L926.016 32.184C925.429 32.0133 924.976 31.7147 924.656 31.288C924.336 30.8613 924.176 30.3707 924.176 29.816C924.176 29.112 924.432 28.52 924.944 28.04C925.456 27.56 926.16 27.32 927.056 27.32H930.832V35H929.552V32.312H927.392L925.296 35ZM925.904 28.824C925.605 29.0587 925.456 29.3893 925.456 29.816C925.456 30.2427 925.605 30.5733 925.904 30.808C926.213 31.0427 926.634 31.16 927.168 31.16H929.552V28.472H927.168C926.634 28.472 926.213 28.5893 925.904 28.824Z" fill="#000A22"/>
<path d="M685.8 35H684.456V27V26.04L677.72 35H676.472V23.8H677.816V31.784V32.744L684.552 23.8H685.8V35ZM687.75 31.192C687.75 30.52 687.872 29.9173 688.118 29.384C688.363 28.8507 688.683 28.424 689.078 28.104C689.483 27.784 689.926 27.544 690.406 27.384C690.896 27.2133 691.398 27.128 691.91 27.128C692.859 27.128 693.648 27.336 694.278 27.752V29C693.691 28.5413 692.955 28.312 692.07 28.312C691.238 28.312 690.523 28.552 689.926 29.032C689.328 29.512 689.03 30.2213 689.03 31.16C689.03 32.088 689.323 32.7973 689.91 33.288C690.507 33.768 691.216 34.008 692.038 34.008C692.891 34.008 693.664 33.8 694.358 33.384V34.664C693.632 35.016 692.8 35.192 691.862 35.192C690.752 35.192 689.787 34.8453 688.966 34.152C688.155 33.4587 687.75 32.472 687.75 31.192ZM699.431 35H698.151V28.504H695.319V27.32H702.247V28.504H699.431V35ZM704.138 34.12C703.327 33.3947 702.922 32.408 702.922 31.16C702.922 29.912 703.327 28.9307 704.138 28.216C704.948 27.4907 705.908 27.128 707.018 27.128C708.138 27.128 709.098 27.4907 709.898 28.216C710.708 28.9307 711.114 29.912 711.114 31.16C711.114 32.408 710.708 33.3947 709.898 34.12C709.098 34.8347 708.138 35.192 707.018 35.192C705.908 35.192 704.948 34.8347 704.138 34.12ZM709.034 33.224C709.567 32.712 709.834 32.024 709.834 31.16C709.834 30.296 709.567 29.6133 709.034 29.112C708.5 28.6 707.828 28.344 707.018 28.344C706.207 28.344 705.535 28.6 705.002 29.112C704.468 29.6133 704.202 30.296 704.202 31.16C704.202 32.024 704.468 32.712 705.002 33.224C705.535 33.7253 706.207 33.976 707.018 33.976C707.828 33.976 708.5 33.7253 709.034 33.224ZM714.102 28.6C714.966 27.6187 716 27.128 717.206 27.128C718.304 27.128 719.216 27.512 719.942 28.28C720.678 29.048 721.046 30.008 721.046 31.16C721.046 32.312 720.678 33.272 719.942 34.04C719.216 34.808 718.304 35.192 717.206 35.192C715.99 35.192 714.998 34.744 714.23 33.848V38.52H712.95V27.32H714.102V28.6ZM718.982 33.224C719.504 32.7013 719.766 32.0133 719.766 31.16C719.766 30.3067 719.504 29.6187 718.982 29.096C718.47 28.5733 717.83 28.312 717.062 28.312C716.411 28.312 715.835 28.4933 715.334 28.856C714.832 29.2187 714.464 29.6667 714.23 30.2V32.12C714.464 32.6533 714.832 33.1013 715.334 33.464C715.835 33.8267 716.411 34.008 717.062 34.008C717.83 34.008 718.47 33.7467 718.982 33.224ZM723.975 35H722.887V27.32H724.167V32.936L728.871 27.32H729.959V35H728.679V29.384L723.975 35ZM733.413 35H732.325V27.32H733.605V32.936L738.309 27.32H739.397V35H738.117V29.384L733.413 35ZM747.026 35H745.746V27.32H747.026V30.52H748.578L751.01 27.32H752.498L749.586 31.144L752.85 35H751.346L748.53 31.704H747.026V35ZM756.841 28.504C756.788 29.3467 756.724 30.0827 756.649 30.712C756.575 31.3413 756.468 31.9493 756.329 32.536C756.191 33.112 756.02 33.5813 755.817 33.944C755.625 34.3067 755.38 34.5947 755.081 34.808C754.783 35.0213 754.441 35.128 754.057 35.128C753.748 35.128 753.439 35.0693 753.129 34.952V33.944C753.3 34.008 753.471 34.04 753.641 34.04C754.281 34.04 754.745 33.48 755.033 32.36C755.332 31.2293 755.519 29.5493 755.593 27.32H761.241V35H759.961V28.504H756.841ZM764.694 35H763.606V27.32H764.886V32.936L769.59 27.32H770.678V35H769.398V29.384L764.694 35ZM772.515 31.16C772.515 29.9013 772.899 28.9147 773.667 28.2C774.446 27.4853 775.337 27.128 776.339 27.128C777.278 27.128 778.051 27.3627 778.659 27.832C779.278 28.3013 779.683 28.8827 779.875 29.576C780.067 30.2587 780.078 30.9733 779.907 31.72H773.795C773.87 32.4773 774.206 33.048 774.803 33.432C775.401 33.816 776.121 34.008 776.963 34.008C777.902 34.008 778.745 33.8 779.491 33.384V34.632C778.777 35.0053 777.87 35.192 776.771 35.192C775.555 35.192 774.542 34.8453 773.731 34.152C772.921 33.4587 772.515 32.4613 772.515 31.16ZM778.771 30.6C778.803 30.376 778.787 30.1413 778.723 29.896C778.659 29.6507 778.542 29.4053 778.371 29.16C778.211 28.9147 777.961 28.712 777.619 28.552C777.278 28.392 776.878 28.312 776.419 28.312C775.726 28.312 775.123 28.5147 774.611 28.92C774.11 29.3253 773.838 29.8853 773.795 30.6H778.771ZM783.058 35H781.778V27.32H783.058V30.568H787.506V27.32H788.786V35H787.506V31.752H783.058V35ZM794.353 35H793.073V28.504H790.241V27.32H797.169V28.504H794.353V35ZM799.059 34.12C798.249 33.3947 797.843 32.408 797.843 31.16C797.843 29.912 798.249 28.9307 799.059 28.216C799.87 27.4907 800.83 27.128 801.939 27.128C803.059 27.128 804.019 27.4907 804.819 28.216C805.63 28.9307 806.035 29.912 806.035 31.16C806.035 32.408 805.63 33.3947 804.819 34.12C804.019 34.8347 803.059 35.192 801.939 35.192C800.83 35.192 799.87 34.8347 799.059 34.12ZM803.955 33.224C804.489 32.712 804.755 32.024 804.755 31.16C804.755 30.296 804.489 29.6133 803.955 29.112C803.422 28.6 802.75 28.344 801.939 28.344C801.129 28.344 800.457 28.6 799.923 29.112C799.39 29.6133 799.123 30.296 799.123 31.16C799.123 32.024 799.39 32.712 799.923 33.224C800.457 33.7253 801.129 33.976 801.939 33.976C802.75 33.976 803.422 33.7253 803.955 33.224ZM812.207 35H807.871V27.32H812.079C812.773 27.32 813.338 27.5013 813.775 27.864C814.223 28.2267 814.447 28.7387 814.447 29.4C814.447 29.784 814.351 30.1307 814.159 30.44C813.967 30.7493 813.722 30.968 813.423 31.096C813.775 31.2133 814.074 31.4267 814.319 31.736C814.565 32.0453 814.687 32.424 814.687 32.872C814.687 33.5227 814.474 34.04 814.047 34.424C813.631 34.808 813.018 35 812.207 35ZM809.151 31.672V33.88H812.031C812.949 33.88 813.407 33.5173 813.407 32.792C813.407 32.0453 812.965 31.672 812.079 31.672H809.151ZM809.151 28.44V30.568H811.951C812.751 30.568 813.151 30.2213 813.151 29.528C813.151 29.1333 813.034 28.856 812.799 28.696C812.565 28.5253 812.282 28.44 811.951 28.44H809.151Z" fill="#000A22"/>
<path d="M977.816 35H976.472V23.8H977.816V28.648H980.36L983.736 23.8H985.272L981.464 29.256L985.608 35H984.072L980.408 29.928H977.816V35ZM986.981 34.12C986.171 33.3947 985.765 32.408 985.765 31.16C985.765 29.912 986.171 28.9307 986.981 28.216C987.792 27.4907 988.752 27.128 989.861 27.128C990.981 27.128 991.941 27.4907 992.741 28.216C993.552 28.9307 993.957 29.912 993.957 31.16C993.957 32.408 993.552 33.3947 992.741 34.12C991.941 34.8347 990.981 35.192 989.861 35.192C988.752 35.192 987.792 34.8347 986.981 34.12ZM991.877 33.224C992.411 32.712 992.677 32.024 992.677 31.16C992.677 30.296 992.411 29.6133 991.877 29.112C991.344 28.6 990.672 28.344 989.861 28.344C989.051 28.344 988.379 28.6 987.845 29.112C987.312 29.6133 987.045 30.296 987.045 31.16C987.045 32.024 987.312 32.712 987.845 33.224C988.379 33.7253 989.051 33.976 989.861 33.976C990.672 33.976 991.344 33.7253 991.877 33.224ZM997.073 35H995.793V27.32H997.073V30.568H1001.52V27.32H1002.8V35H1001.52V31.752H997.073V35ZM1008.37 35H1007.09V28.504H1004.26V27.32H1011.18V28.504H1008.37V35ZM1018.8 33.4C1018.8 33.7947 1019 33.992 1019.39 33.992C1019.56 33.992 1019.76 33.9547 1019.98 33.88V34.92C1019.66 35.0373 1019.34 35.096 1019.02 35.096C1018.29 35.096 1017.82 34.7867 1017.61 34.168C1016.79 34.8507 1015.8 35.192 1014.62 35.192C1013.88 35.192 1013.24 34.9947 1012.7 34.6C1012.18 34.1947 1011.92 33.6133 1011.92 32.856C1011.92 31.9493 1012.25 31.2933 1012.93 30.888C1013.61 30.472 1014.43 30.264 1015.39 30.264C1016.09 30.264 1016.8 30.344 1017.52 30.504V30.232C1017.52 29.6453 1017.33 29.1813 1016.94 28.84C1016.56 28.488 1016.02 28.312 1015.33 28.312C1014.36 28.312 1013.42 28.504 1012.53 28.888V27.64C1013.53 27.2987 1014.51 27.128 1015.45 27.128C1016.5 27.128 1017.32 27.4107 1017.9 27.976C1018.5 28.5307 1018.8 29.336 1018.8 30.392V33.4ZM1013.23 32.792C1013.23 33.2187 1013.39 33.544 1013.71 33.768C1014.04 33.9813 1014.44 34.088 1014.89 34.088C1015.95 34.088 1016.83 33.7147 1017.52 32.968V31.56C1016.79 31.4107 1016.14 31.336 1015.57 31.336C1014.92 31.336 1014.36 31.4533 1013.9 31.688C1013.45 31.912 1013.23 32.28 1013.23 32.792ZM1022.64 35H1021.36V27.32H1022.64V30.52H1024.19L1026.62 27.32H1028.11L1025.2 31.144L1028.46 35H1026.96L1024.14 31.704H1022.64V35ZM1032.93 35H1031.65V28.504H1028.82V27.32H1035.75V28.504H1032.93V35ZM1040.85 35H1037.2V27.32H1038.48V30.008H1040.85C1041.76 30.008 1042.49 30.2427 1043.02 30.712C1043.56 31.1813 1043.82 31.7787 1043.82 32.504C1043.82 33.2293 1043.56 33.8267 1043.02 34.296C1042.49 34.7653 1041.76 35 1040.85 35ZM1038.48 31.16V33.848H1040.69C1041.26 33.848 1041.71 33.736 1042.03 33.512C1042.36 33.288 1042.53 32.952 1042.53 32.504C1042.53 32.056 1042.36 31.72 1042.03 31.496C1041.71 31.272 1041.26 31.16 1040.69 31.16H1038.48ZM1046.59 35H1045.31V27.32H1046.59V35Z" fill="#000A22"/>
<path d="M1262.25 31.229H1265.58V33.471H1262.25V36.796H1260.01V33.471H1256.68V31.229H1260.01V27.904H1262.25V31.229ZM1266.16 26.061H1276.1V28.113L1270.8 39H1267.72L1272.83 28.512H1266.16V26.061ZM1284.19 23.61H1286.32C1285.61 24.8387 1285.05 26.2257 1284.65 27.771C1284.24 29.3037 1284.04 30.83 1284.04 32.35C1284.04 33.87 1284.24 35.4027 1284.65 36.948C1285.05 38.4807 1285.61 39.8613 1286.32 41.09H1284.19C1283.32 39.8613 1282.62 38.4743 1282.1 36.929C1281.6 35.3837 1281.34 33.8573 1281.34 32.35C1281.34 30.8427 1281.6 29.3163 1282.1 27.771C1282.62 26.2257 1283.32 24.8387 1284.19 23.61ZM1293.41 26.08H1296.24V34.269H1298.19V36.644H1296.24V39H1293.52V36.644H1286.74V34.288L1293.41 26.08ZM1293.52 34.269V29.557L1289.7 34.269H1293.52ZM1299.36 30.26C1299.36 28.854 1299.83 27.7647 1300.78 26.992C1301.73 26.2067 1302.9 25.814 1304.3 25.814C1308.2 25.814 1310.15 28.056 1310.15 32.54C1310.15 33.68 1309.98 34.6933 1309.66 35.58C1309.33 36.454 1308.88 37.157 1308.31 37.689C1307.74 38.2083 1307.09 38.601 1306.37 38.867C1305.65 39.133 1304.86 39.266 1304.01 39.266C1302.78 39.266 1301.6 39 1300.46 38.468V35.96C1301.38 36.568 1302.44 36.872 1303.63 36.872C1305.8 36.872 1307.03 35.77 1307.32 33.566C1306.23 34.1487 1305.08 34.44 1303.88 34.44C1302.63 34.44 1301.56 34.0727 1300.67 33.338C1299.79 32.6033 1299.36 31.5773 1299.36 30.26ZM1304.53 28.132C1303.84 28.132 1303.28 28.2967 1302.85 28.626C1302.42 28.9553 1302.21 29.4557 1302.21 30.127C1302.21 31.419 1303.05 32.065 1304.73 32.065C1305.61 32.065 1306.47 31.8053 1307.32 31.286C1307.19 30.1333 1306.89 29.3227 1306.43 28.854C1305.96 28.3727 1305.32 28.132 1304.53 28.132ZM1312.65 26.061H1320.86V28.512L1315.21 28.493L1315.04 31.02C1315.65 30.8933 1316.21 30.83 1316.72 30.83C1318.11 30.83 1319.24 31.1657 1320.12 31.837C1321 32.5083 1321.45 33.547 1321.45 34.953C1321.45 36.3717 1320.92 37.4483 1319.87 38.183C1318.82 38.905 1317.52 39.266 1315.97 39.266C1314.4 39.266 1313.02 38.9747 1311.81 38.392V35.751C1312.89 36.435 1314.17 36.777 1315.65 36.777C1316.54 36.777 1317.25 36.6187 1317.78 36.302C1318.32 35.9853 1318.6 35.523 1318.6 34.915C1318.6 33.6483 1317.55 33.015 1315.44 33.015C1314.3 33.015 1313.22 33.1987 1312.19 33.566L1312.65 26.061ZM1322.47 23.61H1324.6C1325.47 24.8387 1326.16 26.2257 1326.67 27.771C1327.19 29.3163 1327.45 30.8427 1327.45 32.35C1327.45 33.8573 1327.19 35.3837 1326.67 36.929C1326.16 38.4743 1325.47 39.8613 1324.6 41.09H1322.47C1323.18 39.8613 1323.74 38.4807 1324.14 36.948C1324.55 35.4027 1324.75 33.87 1324.75 32.35C1324.75 30.83 1324.55 29.3037 1324.14 27.771C1323.74 26.2257 1323.18 24.8387 1322.47 23.61ZM1336.46 26.08H1338.53V36.549H1340.69V39H1333.32V36.549H1335.75V28.93L1333.32 29.842V27.277L1336.46 26.08ZM1342.8 26.061H1351.01V28.512L1345.37 28.493L1345.2 31.02C1345.8 30.8933 1346.36 30.83 1346.87 30.83C1348.26 30.83 1349.39 31.1657 1350.27 31.837C1351.16 32.5083 1351.6 33.547 1351.6 34.953C1351.6 36.3717 1351.07 37.4483 1350.02 38.183C1348.97 38.905 1347.67 39.266 1346.13 39.266C1344.56 39.266 1343.17 38.9747 1341.97 38.392V35.751C1343.04 36.435 1344.32 36.777 1345.8 36.777C1346.69 36.777 1347.4 36.6187 1347.93 36.302C1348.48 35.9853 1348.75 35.523 1348.75 34.915C1348.75 33.6483 1347.7 33.015 1345.59 33.015C1344.45 33.015 1343.37 33.1987 1342.35 33.566L1342.8 26.061ZM1354.58 37.404C1353.6 36.15 1353.12 34.5287 1353.12 32.54C1353.12 30.5513 1353.6 28.9363 1354.58 27.695C1355.57 26.441 1357.04 25.814 1359.01 25.814C1360.97 25.814 1362.44 26.441 1363.41 27.695C1364.4 28.9363 1364.9 30.5513 1364.9 32.54C1364.9 34.5287 1364.4 36.15 1363.41 37.404C1362.44 38.6453 1360.97 39.266 1359.01 39.266C1357.04 39.266 1355.57 38.6453 1354.58 37.404ZM1359.01 36.758C1361.03 36.758 1362.05 35.352 1362.05 32.54C1362.05 29.728 1361.03 28.322 1359.01 28.322C1356.98 28.322 1355.97 29.728 1355.97 32.54C1355.97 35.352 1356.98 36.758 1359.01 36.758ZM1366.76 33.262H1373.83V35.485H1366.76V33.262ZM1381.97 26.08H1384.8V34.269H1386.75V36.644H1384.8V39H1382.08V36.644H1375.3V34.288L1381.97 26.08ZM1382.08 34.269V29.557L1378.26 34.269H1382.08ZM1389.61 37.404C1388.63 36.15 1388.15 34.5287 1388.15 32.54C1388.15 30.5513 1388.63 28.9363 1389.61 27.695C1390.6 26.441 1392.07 25.814 1394.04 25.814C1396 25.814 1397.47 26.441 1398.45 27.695C1399.43 28.9363 1399.93 30.5513 1399.93 32.54C1399.93 34.5287 1399.43 36.15 1398.45 37.404C1397.47 38.6453 1396 39.266 1394.04 39.266C1392.07 39.266 1390.6 38.6453 1389.61 37.404ZM1394.04 36.758C1396.06 36.758 1397.08 35.352 1397.08 32.54C1397.08 29.728 1396.06 28.322 1394.04 28.322C1392.01 28.322 1391 29.728 1391 32.54C1391 35.352 1392.01 36.758 1394.04 36.758ZM1401.79 33.262H1408.86V35.485H1401.79V33.262ZM1411.6 26.061H1419.81V28.512L1414.17 28.493L1414 31.02C1414.6 30.8933 1415.16 30.83 1415.67 30.83C1417.06 30.83 1418.2 31.1657 1419.07 31.837C1419.96 32.5083 1420.4 33.547 1420.4 34.953C1420.4 36.3717 1419.87 37.4483 1418.82 38.183C1417.77 38.905 1416.47 39.266 1414.93 39.266C1413.36 39.266 1411.97 38.9747 1410.77 38.392V35.751C1411.84 36.435 1413.12 36.777 1414.6 36.777C1415.49 36.777 1416.2 36.6187 1416.73 36.302C1417.28 35.9853 1417.55 35.523 1417.55 34.915C1417.55 33.6483 1416.5 33.015 1414.4 33.015C1413.26 33.015 1412.17 33.1987 1411.15 33.566L1411.6 26.061ZM1422.79 26.061H1431V28.512L1425.36 28.493L1425.18 31.02C1425.79 30.8933 1426.35 30.83 1426.86 30.83C1428.25 30.83 1429.38 31.1657 1430.26 31.837C1431.14 32.5083 1431.59 33.547 1431.59 34.953C1431.59 36.3717 1431.06 37.4483 1430.01 38.183C1428.96 38.905 1427.66 39.266 1426.12 39.266C1424.54 39.266 1423.16 38.9747 1421.95 38.392V35.751C1423.03 36.435 1424.31 36.777 1425.79 36.777C1426.68 36.777 1427.39 36.6187 1427.92 36.302C1428.47 35.9853 1428.74 35.523 1428.74 34.915C1428.74 33.6483 1427.69 33.015 1425.58 33.015C1424.44 33.015 1423.36 33.1987 1422.33 33.566L1422.79 26.061Z" fill="#000A22"/>
<path d="M1534.44 22.953L1531.3 38.0493C1531.06 39.1147 1530.44 39.3798 1529.56 38.878L1524.77 35.2838L1522.46 37.5474C1522.2 37.8078 1521.99 38.0257 1521.5 38.0257L1521.84 33.0582L1530.72 24.8897C1531.11 24.5393 1530.64 24.3451 1530.12 24.6956L1519.14 31.7323L1514.42 30.2265C1513.39 29.8997 1513.37 29.1799 1514.63 28.678L1533.12 21.4282C1533.97 21.1015 1534.72 21.6223 1534.44 22.953Z" fill="#000A22"/>
<path d="M1558.45 26.2H1565.06V27.32H1559.62V30.498H1564.64V31.618H1559.62V34.88H1565.14V36H1558.45V26.2ZM1567.79 30.274C1568.03 29.9473 1568.37 29.672 1568.8 29.448C1569.24 29.224 1569.71 29.112 1570.21 29.112C1571.02 29.112 1571.69 29.3687 1572.21 29.882C1572.75 30.386 1573.01 31.044 1573.01 31.856V36H1571.89V31.996C1571.89 31.3893 1571.72 30.932 1571.39 30.624C1571.06 30.3067 1570.63 30.148 1570.09 30.148C1569.23 30.148 1568.5 30.596 1567.9 31.492V36H1566.78V29.28H1567.79V30.274Z" fill="#000A22"/>
<defs>
<clipPath id="clip0_2_599">
<rect width="205" height="38.0092" fill="white" transform="translate(66 12.2031)"/>
</clipPath>
</defs>
</svg>
